<svg data-v-423bf9ae="" xmlns="http://www.w3.org/2000/svg" viewBox="0 0 343.7360896593351 60" class="font"><!----><!----><defs data-v-423bf9ae=""><linearGradient data-v-423bf9ae="" gradientTransform="rotate(25)" id="b2fa69d5-e9d9-474d-9082-7d27c3346b63" x1="0%" y1="0%" x2="100%" y2="0%"><stop data-v-423bf9ae="" offset="0%" style="stop-color: rgb(40, 139, 88); stop-opacity: 1;"></stop><stop data-v-423bf9ae="" offset="100%" style="stop-color: rgb(21, 34, 241); stop-opacity: 1;"></stop></linearGradient></defs><g data-v-423bf9ae="" id="1da373ad-1424-477f-9092-3a3cc78ef280" fill="url(#b2fa69d5-e9d9-474d-9082-7d27c3346b63)" transform="matrix(4.769475386636096,0,0,4.769475386636096,-7.154219732131452,-20.127185607765725)"><path d="M4.28 5.52L5.82 5.52L5.82 4.36L1.50 4.36L1.50 5.52L3.05 5.52L3.05 12.36L1.50 12.36L1.50 13.52L5.82 13.52L5.82 12.36L4.28 12.36ZM11.84 6.55C10.91 6.55 10.04 7.23 9.61 7.77L9.61 6.69L8.49 6.69L8.49 13.52L9.61 13.52L9.61 8.98C10.16 8.27 10.92 7.64 11.65 7.64C12.73 7.64 13.23 8.29 13.23 9.46L13.25 13.52L14.37 13.52L14.37 9.35C14.37 7.46 13.23 6.55 11.84 6.55ZM19.30 13.52L22.52 6.69L21.18 6.69L18.94 11.72L16.87 6.69L15.53 6.69L18.61 13.52ZM29.71 9.87C29.71 8.00 28.67 6.55 26.56 6.55C24.64 6.55 23.27 8.20 23.27 10.14C23.27 12.09 24.76 13.73 26.84 13.73C27.90 13.73 28.62 13.26 28.89 12.99L28.89 11.85C28.44 12.18 27.82 12.63 26.84 12.63C25.53 12.63 24.62 11.69 24.46 10.54L29.71 10.54ZM24.49 9.58C24.68 8.50 25.44 7.64 26.56 7.64C27.52 7.64 28.46 8.26 28.60 9.58ZM34.90 6.55C33.97 6.55 33.10 7.23 32.68 7.77L32.68 6.69L31.55 6.69L31.55 13.52L32.68 13.52L32.68 8.98C33.22 8.27 33.99 7.64 34.71 7.64C35.79 7.64 36.30 8.29 36.30 9.46L36.31 13.52L37.43 13.52L37.43 9.35C37.43 7.46 36.30 6.55 34.90 6.55ZM41.44 6.69L41.44 4.72L40.92 4.72C40.47 6.07 39.89 7.01 39.01 7.41L39.01 7.74L40.32 7.74L40.32 11.80C40.32 12.96 40.92 13.73 42.08 13.73C42.77 13.73 43.12 13.54 43.49 13.25L43.49 12.33C43.22 12.50 42.88 12.66 42.33 12.66C41.73 12.66 41.44 12.32 41.44 11.74L41.44 7.74L43.44 7.74L43.44 6.69ZM48.03 4.22C46.40 4.22 44.99 5.35 44.99 6.79C44.99 7.82 45.38 8.59 46.69 9.17L48.21 9.86C48.77 10.10 49.52 10.49 49.52 11.17C49.52 11.98 48.71 12.46 47.80 12.46C46.63 12.46 45.72 11.99 45.01 11.50L45.01 12.77C45.66 13.23 46.58 13.66 47.63 13.66C49.31 13.66 50.78 12.61 50.78 11.12C50.78 9.97 50.13 9.37 48.88 8.79L47.62 8.22C46.87 7.88 46.27 7.57 46.27 6.84C46.27 5.85 47.33 5.43 48.17 5.43C49.01 5.43 49.77 5.84 50.29 6.22L50.29 4.95C49.75 4.61 49.11 4.22 48.03 4.22ZM59.06 6.69L57.72 6.69L55.40 11.72L53.01 6.69L51.67 6.69L54.69 13.11L52.73 16.80L54.03 16.80ZM63.78 6.55C62.85 6.55 61.97 7.23 61.55 7.77L61.55 6.69L60.43 6.69L60.43 13.52L61.55 13.52L61.55 8.98C62.10 8.27 62.86 7.64 63.59 7.64C64.67 7.64 65.17 8.29 65.17 9.46L65.19 13.52L66.31 13.52L66.31 9.35C66.31 7.46 65.17 6.55 63.78 6.55ZM71.52 6.55C69.44 6.55 67.95 8.20 67.95 10.14C67.95 12.09 69.44 13.73 71.52 13.73C72.52 13.73 73.29 13.33 73.57 13.06L73.57 11.92C73.05 12.30 72.43 12.63 71.52 12.63C70.05 12.63 69.11 11.47 69.11 10.14C69.11 8.82 70.05 7.64 71.52 7.64C72.43 7.64 73.05 7.97 73.57 8.35L73.57 7.22C73.29 6.96 72.52 6.55 71.52 6.55Z"></path></g><!----><!----></svg>